<svg width="20" height="20" viewBox="0 0 20 20" fill="none" xmlns="http://www.w3.org/2000/svg">
<path d="M10.001 7C9.20533 7 8.44227 7.31607 7.87966 7.87868C7.31705 8.44129 7.00098 9.20435 7.00098 10C7.00098 10.7956 7.31705 11.5587 7.87966 12.1213C8.44227 12.6839 9.20533 13 10.001 13C10.7966 13 11.5597 12.6839 12.1223 12.1213C12.6849 11.5587 13.001 10.7956 13.001 10C13.001 9.20435 12.6849 8.44129 12.1223 7.87868C11.5597 7.31607 10.7966 7 10.001 7ZM10.001 5C11.3271 5 12.5988 5.52678 13.5365 6.46447C14.4742 7.40215 15.001 8.67392 15.001 10C15.001 11.3261 14.4742 12.5979 13.5365 13.5355C12.5988 14.4732 11.3271 15 10.001 15C8.67489 15 7.40312 14.4732 6.46544 13.5355C5.52776 12.5979 5.00098 11.3261 5.00098 10C5.00098 8.67392 5.52776 7.40215 6.46544 6.46447C7.40312 5.52678 8.67489 5 10.001 5ZM16.501 4.75C16.501 5.08152 16.3693 5.39946 16.1349 5.63388C15.9004 5.8683 15.5825 6 15.251 6C14.9195 6 14.6015 5.8683 14.3671 5.63388C14.1327 5.39946 14.001 5.08152 14.001 4.75C14.001 4.41848 14.1327 4.10054 14.3671 3.86612C14.6015 3.6317 14.9195 3.5 15.251 3.5C15.5825 3.5 15.9004 3.6317 16.1349 3.86612C16.3693 4.10054 16.501 4.41848 16.501 4.75ZM10.001 2C7.52698 2 7.12298 2.007 5.97198 2.058C5.18798 2.095 4.66198 2.2 4.17398 2.39C3.76559 2.53994 3.39639 2.78026 3.09398 3.093C2.78098 3.3954 2.54033 3.76458 2.38998 4.173C2.19998 4.663 2.09498 5.188 2.05898 5.971C2.00698 7.075 1.99998 7.461 1.99998 10C1.99998 12.475 2.00698 12.878 2.05798 14.029C2.09498 14.812 2.19998 15.339 2.38898 15.826C2.55898 16.261 2.75898 16.574 3.09098 16.906C3.42798 17.242 3.74098 17.443 4.17098 17.609C4.66498 17.8 5.19098 17.906 5.97098 17.942C7.07498 17.994 7.46098 18 9.99998 18C12.475 18 12.878 17.993 14.029 17.942C14.811 17.905 15.337 17.8 15.826 17.611C16.234 17.4603 16.603 17.2201 16.906 16.908C17.243 16.572 17.444 16.259 17.61 15.828C17.8 15.336 17.906 14.81 17.942 14.028C17.994 12.925 18 12.538 18 10C18 7.526 17.993 7.122 17.942 5.971C17.905 5.189 17.799 4.661 17.61 4.173C17.4592 3.76502 17.219 3.39598 16.907 3.093C16.6047 2.77985 16.2355 2.53917 15.827 2.389C15.337 2.199 14.811 2.094 14.029 2.058C12.926 2.006 12.541 2 10.001 2ZM10.001 0C12.718 0 13.057 0.00999994 14.124 0.0599999C15.188 0.11 15.914 0.277 16.551 0.525C17.211 0.779 17.767 1.123 18.323 1.678C18.8315 2.1779 19.2249 2.78259 19.476 3.45C19.723 4.087 19.891 4.813 19.941 5.878C19.988 6.944 20.001 7.283 20.001 10C20.001 12.717 19.991 13.056 19.941 14.122C19.891 15.187 19.723 15.912 19.476 16.55C19.2256 17.2178 18.8321 17.8226 18.323 18.322C17.8229 18.8303 17.2183 19.2238 16.551 19.475C15.914 19.722 15.188 19.89 14.124 19.94C13.057 19.987 12.718 20 10.001 20C7.28398 20 6.94498 19.99 5.87798 19.94C4.81398 19.89 4.08898 19.722 3.45098 19.475C2.7833 19.2245 2.1785 18.8309 1.67898 18.322C1.17041 17.8222 0.776937 17.2175 0.525977 16.55C0.277977 15.913 0.110977 15.187 0.0609767 14.122C0.0129767 13.056 0.000976562 12.717 0.000976562 10C0.000976562 7.283 0.0109767 6.944 0.0609767 5.878C0.110977 4.812 0.277977 4.088 0.525977 3.45C0.776213 2.78218 1.16978 2.17732 1.67898 1.678C2.17865 1.16923 2.78341 0.775729 3.45098 0.525C4.08798 0.277 4.81298 0.11 5.87798 0.0599999C6.94498 0.0129999 7.28398 0 10.001 0Z" fill="#FF5738"/>
</svg>
